HIERARCHY
ROOT Hips
{
	OFFSET 0.000000 0.000000 0.000000
	CHANNELS 6 Xposition Yposition Zposition Zrotation Yrotation Xrotation 
	JOINT LHipJoint
	{
		OFFSET 0.000000 0.000000 0.000000
		CHANNELS 3 Zrotation Yrotation Xrotation
		JOINT LeftUpLeg
		{
			OFFSET 1.363060 -1.794630 0.839290
			CHANNELS 3 Zrotation Yrotation Xrotation
			JOINT LeftLeg
			{
				OFFSET 2.448110 -6.726130 0.000000
				CHANNELS 3 Zrotation Yrotation Xrotation
				JOINT LeftFoot
				{
					OFFSET 2.562200 -7.039590 0.000000
					CHANNELS 3 Zrotation Yrotation Xrotation
					JOINT LeftToeBase
					{
						OFFSET 0.157640 -0.433110 2.322550
						CHANNELS 3 Zrotation Yrotation Xrotation
						End Site
						{
							OFFSET 0.000000 0.000000 0.000000
						}
					}
				}
			}
		}
	}
	JOINT RHipJoint
	{
		OFFSET 0.000000 0.000000 0.000000
		CHANNELS 3 Zrotation Yrotation Xrotation
		JOINT RightUpLeg
		{
			OFFSET -1.305520 -1.794630 0.839290
			CHANNELS 3 Zrotation Yrotation Xrotation
			JOINT RightLeg
			{
				OFFSET -2.542530 -6.985550 0.000000
				CHANNELS 3 Zrotation Yrotation Xrotation
				JOINT RightFoot
				{
					OFFSET -2.568260 -7.056230 0.000000
					CHANNELS 3 Zrotation Yrotation Xrotation
					JOINT RightToeBase
					{
						OFFSET -0.164730 -0.452590 2.363150
						CHANNELS 3 Zrotation Yrotation Xrotation
						End Site
						{
							OFFSET 0.000000 0.000000 0.000000
						}
					}
				}
			}
		}
	}
	JOINT LowerBack
	{
		OFFSET 0.000000 0.000000 0.000000
		CHANNELS 3 Zrotation Yrotation Xrotation
		JOINT Spine
		{
			OFFSET 0.028270 2.035590 -0.193380
			CHANNELS 3 Zrotation Yrotation Xrotation
			JOINT Spine1
			{
				OFFSET 0.056720 2.048850 -0.042750
				CHANNELS 3 Zrotation Yrotation Xrotation
				JOINT Neck
				{
					OFFSET 0.000000 0.000000 0.000000
					CHANNELS 3 Zrotation Yrotation Xrotation
					JOINT Neck1
					{
						OFFSET -0.054170 1.746240 0.172020
						CHANNELS 3 Zrotation Yrotation Xrotation
						JOINT Head
						{
							OFFSET 0.104070 1.761360 -0.123970
							CHANNELS 3 Zrotation Yrotation Xrotation
							End Site
							{
								OFFSET 0.000000 0.000000 0.000000
							}
						}
					}
				}
				JOINT LeftShoulder
				{
					OFFSET 0.000000 0.000000 0.000000
					CHANNELS 3 Zrotation Yrotation Xrotation
					JOINT LeftArm
					{
						OFFSET 3.362410 1.200890 -0.311210
						CHANNELS 3 Zrotation Yrotation Xrotation
						JOINT LeftForeArm
						{
							OFFSET 4.983000 -0.000000 -0.000000
							CHANNELS 3 Zrotation Yrotation Xrotation
							JOINT LeftHand
							{
								OFFSET 3.483560 -0.000000 -0.000000
								CHANNELS 3 Zrotation Yrotation Xrotation
								JOINT LeftFingerBase
								{
									OFFSET 0.000000 0.000000 0.000000
									CHANNELS 3 Zrotation Yrotation Xrotation
									JOINT LeftHandIndex1
									{
										OFFSET 0.715260 -0.000000 -0.000000
										CHANNELS 3 Zrotation Yrotation Xrotation
										End Site
										{
											OFFSET 0.000000 0.000000 0.000000
										}
									}
								}
								JOINT LThumb
								{
									OFFSET 0.000000 0.000000 0.000000
									CHANNELS 3 Zrotation Yrotation Xrotation
									End Site
									{
										OFFSET 0.000000 0.000000 0.000000
									}
								}
							}
						}
					}
				}
				JOINT RightShoulder
				{
					OFFSET 0.000000 0.000000 0.000000
					CHANNELS 3 Zrotation Yrotation Xrotation
					JOINT RightArm
					{
						OFFSET -3.136600 1.374050 -0.404650
						CHANNELS 3 Zrotation Yrotation Xrotation
						JOINT RightForeArm
						{
							OFFSET -5.241900 -0.000000 -0.000000
							CHANNELS 3 Zrotation Yrotation Xrotation
							JOINT RightHand
							{
								OFFSET -3.444170 -0.000000 -0.000000
								CHANNELS 3 Zrotation Yrotation Xrotation
								JOINT RightFingerBase
								{
									OFFSET 0.000000 0.000000 0.000000
									CHANNELS 3 Zrotation Yrotation Xrotation
									JOINT RightHandIndex1
									{
										OFFSET -0.622530 -0.000000 -0.000000
										CHANNELS 3 Zrotation Yrotation Xrotation
										End Site
										{
											OFFSET 0.000000 0.000000 0.000000
										}
									}
								}
								JOINT RThumb
								{
									OFFSET 0.000000 0.000000 0.000000
									CHANNELS 3 Zrotation Yrotation Xrotation
									End Site
									{
										OFFSET 0.000000 0.000000 0.000000
									}
								}
							}
						}
					}
				}
			}
		}
	}
}
MOTION
Frames: 11
Frame Time: 0.008333
-29.999119 17.488925 -3.072857 0.628472 -0.866599 -4.568892 4.808568 -0.027503 -0.425618 -25.733764 -20.526969 0.737249 -0.547794 10.336322 27.706669 -4.838119 17.697702 -10.865842 0.346100 -3.780300 -10.459300 -6.048788 0.700610 -2.079205 31.030058 13.411962 3.853028 -0.601193 -10.564246 28.542361 2.616181 -18.327838 -29.257586 -0.175000 2.694400 -7.429000 0.745129 1.669714 4.462420 1.317583 2.748974 2.475714 -7.868524 1.298634 7.357740 3.553088 0.735657 -3.374702 9.611952 -0.352134 36.119152 1.023200 2.903400 16.051400 8.088896 6.949347 -1.862479 -93.581621 5.678020 30.360488 15.616413 -22.125913 -5.601861 -1.244868 -4.581533 -4.290579 16.619739 9.379680 4.550000 -7.125000 0.000000 0.000000 -8.447100 44.456000 0.114300 -10.660580 -4.823372 0.179459 102.267040 -3.582437 30.191778 -14.050353 22.578698 -4.623859 1.021033 2.614868 -18.509537 -16.799990 3.383665 -0.379300 7.125000 0.000000 0.000000 6.178600 -28.769600 2.455200 
-30.002264 17.487410 -3.073323 0.642905 -0.891268 -4.596265 4.806976 -0.024905 -0.425727 -25.729596 -20.464487 0.740931 -0.546663 10.333497 27.706647 -4.829265 17.668212 -10.838959 0.339200 -3.742800 -10.354200 -6.052207 0.700288 -2.078480 31.057420 13.453955 3.907222 -0.603231 -10.566408 28.557081 2.594030 -18.286087 -29.309439 -0.169400 2.651100 -7.308900 0.711892 1.667404 4.489530 1.326312 2.743809 2.479136 -7.808638 1.288531 7.332684 3.476350 0.753194 -3.288579 9.621979 -0.309806 36.083552 1.038500 2.907000 15.983000 8.100491 6.946867 -1.858891 -93.612468 5.701803 30.411538 15.645819 -22.156285 -5.605578 -1.262109 -4.636804 -4.283353 16.805360 9.656601 4.712500 -7.125000 0.000000 0.000000 -8.332600 44.823400 0.036600 -10.667433 -4.825381 0.184571 102.231682 -3.616720 30.203642 -14.068639 22.622280 -4.650914 0.999864 2.609195 -18.535321 -16.623583 3.366378 -0.369900 7.125000 0.000000 0.000000 6.332900 -28.785900 2.514800 
-30.005642 17.488226 -3.073556 0.629279 -0.893160 -4.620551 4.805246 -0.019175 -0.423822 -25.707391 -20.420909 0.772078 -0.545968 10.325327 27.697240 -4.837267 17.683862 -10.807099 0.347800 -3.789500 -10.485100 -6.055440 0.699523 -2.077829 31.105387 13.480410 3.947960 -0.604155 -10.569118 28.567814 2.573752 -18.245603 -29.352274 -0.166200 2.626600 -7.240800 0.751334 1.652446 4.524364 1.332297 2.724263 2.476257 -7.816346 1.277849 7.292870 3.397866 0.776398 -3.208409 9.653809 -0.269625 36.081710 1.075100 2.910100 15.941500 8.103304 6.949391 -1.854944 -93.642744 5.723033 30.354115 15.650370 -22.157007 -5.602858 -1.252978 -4.660798 -4.241371 16.793905 9.803459 4.762300 -7.125000 0.000000 0.000000 -8.391900 44.999300 0.000100 -10.686087 -4.833246 0.186462 102.207828 -3.698357 30.355583 -14.108356 22.700928 -4.688646 0.982100 2.623028 -18.627662 -16.577357 3.263633 -0.329600 7.125000 0.000000 0.000000 6.382700 -28.909200 2.516000 
-30.009021 17.490905 -3.072391 0.600564 -0.910903 -4.645962 4.810495 -0.015877 -0.422059 -25.729464 -20.520187 0.872218 -0.543511 10.325292 27.710745 -4.881908 17.825437 -10.930062 0.354400 -3.824400 -10.583300 -6.057938 0.702972 -2.075336 31.181635 13.590062 4.038337 -0.599001 -10.561990 28.551951 2.534226 -18.163722 -29.432260 -0.153000 2.520900 -6.947500 0.853922 1.665006 4.550740 1.326529 2.744869 2.476729 -7.894489 1.297031 7.289863 3.412048 0.780360 -3.202063 9.670699 -0.276287 36.106476 1.089700 2.908800 15.953200 8.102706 6.945756 -1.852917 -93.588555 5.691687 30.344907 15.642070 -22.163333 -5.623883 -1.248160 -4.569073 -4.303108 16.627153 9.296542 4.522100 -7.125000 0.000000 0.000000 -8.416100 44.358100 0.134300 -10.695662 -4.834327 0.186352 102.230674 -3.737296 30.416167 -14.128501 22.743592 -4.709272 0.969127 2.634092 -18.762412 -16.540866 3.197166 -0.303600 7.125000 0.000000 0.000000 6.418300 -28.989000 2.518000 
-30.007390 17.488342 -3.072158 0.515258 -0.888820 -4.656306 4.810498 -0.012580 -0.417254 -25.709310 -20.706232 0.969859 -0.543554 10.324182 27.717067 -4.917778 17.941225 -11.060051 0.350900 -3.805900 -10.531300 -6.060618 0.699452 -2.082707 31.242067 13.474299 4.030685 -0.598471 -10.558913 28.539367 2.531593 -18.117265 -29.358146 -0.152600 2.516900 -6.936500 1.040408 1.657320 4.558105 1.333930 2.738368 2.481802 -7.973280 1.305291 7.320626 3.426542 0.768593 -3.229205 9.631175 -0.282008 36.125701 1.073000 2.904500 15.976000 8.097355 6.936671 -1.850415 -93.577674 5.627948 30.355328 15.642521 -22.167576 -5.641048 -1.240624 -4.512038 -4.381299 16.506033 8.971294 4.366100 -7.125000 0.000000 0.000000 -8.447500 43.946400 0.221300 -10.692463 -4.823272 0.186515 102.220128 -3.699941 30.312733 -14.130151 22.753080 -4.716195 0.956755 2.627629 -18.788957 -16.423172 3.198260 -0.303100 7.125000 0.000000 0.000000 6.519600 -28.983000 2.559100 
-30.004594 17.486362 -3.073556 0.429972 -0.855803 -4.637950 4.804693 -0.011061 -0.413574 -25.639408 -20.815292 0.983634 -0.542157 10.326009 27.722061 -4.931860 17.979261 -11.079084 0.352000 -3.811800 -10.547700 -6.062797 0.692841 -2.092824 31.257968 13.251362 3.927338 -0.599673 -10.560500 28.528879 2.567886 -18.151992 -29.205379 -0.167800 2.639200 -7.275800 1.202853 1.632218 4.543729 1.352271 2.706148 2.485237 -8.002521 1.295278 7.345861 3.372137 0.779520 -3.229205 9.624599 -0.248874 36.116864 1.085300 2.906200 15.961300 8.085959 6.924565 -1.843911 -93.634487 5.567679 30.303647 15.640470 -22.154543 -5.644304 -1.213418 -4.506947 -4.359265 16.355576 8.970501 4.318800 -7.125000 0.000000 0.000000 -8.609500 43.922200 0.230800 -10.688751 -4.810714 0.186671 102.166694 -3.645787 30.236339 -14.132817 22.749041 -4.708498 0.965081 2.625537 -18.764334 -16.485035 3.223334 -0.313600 7.125000 0.000000 0.000000 6.465000 -28.953700 2.541900 
-30.006691 17.487527 -3.073090 0.499675 -0.866698 -4.630631 4.806307 -0.013432 -0.413895 -25.713171 -20.822046 0.977442 -0.540250 10.335946 27.736905 -4.940993 18.012882 -11.087406 0.359300 -3.850800 -10.657200 -6.060250 0.692288 -2.094213 31.171373 13.223370 3.909889 -0.599227 -10.552853 28.514861 2.583346 -18.183829 -29.175559 -0.172500 2.675800 -7.377300 1.140478 1.629494 4.522970 1.352883 2.702389 2.485465 -7.991395 1.289297 7.396054 3.531347 0.771875 -3.405319 9.493797 -0.242278 36.191947 0.992800 2.937800 16.118700 8.087700 6.922213 -1.852135 -93.627552 5.501628 30.319160 15.630925 -22.126382 -5.623923 -1.257498 -4.489786 -4.361717 16.536236 8.847755 4.330600 -7.125000 0.000000 0.000000 -8.376500 43.799900 0.249900 -10.667335 -4.793760 0.174443 102.154086 -3.591493 30.201005 -14.126926 22.720720 -4.686387 0.991114 2.628290 -18.731752 -16.683448 3.286729 -0.339600 7.125000 0.000000 0.000000 6.287700 -28.885300 2.481700 
-30.009487 17.487177 -3.072158 0.560962 -0.866759 -4.618180 4.808701 -0.016551 -0.415137 -25.765230 -20.814364 0.964256 -0.543219 10.336393 27.729722 -4.927330 17.977535 -11.083356 0.350900 -3.805800 -10.531000 -6.055756 0.692239 -2.092877 31.105120 13.223920 3.897172 -0.601355 -10.553049 28.521710 2.572611 -18.150599 -29.178343 -0.167600 2.637700 -7.271600 1.085291 1.627589 4.504043 1.342903 2.698978 2.481652 -7.978963 1.286465 7.373308 3.440404 0.773169 -3.284271 9.600119 -0.266673 36.101744 1.053800 2.910300 15.982800 8.076560 6.906824 -1.842833 -93.560432 5.474026 30.383646 15.607333 -22.093455 -5.605482 -1.281356 -4.463353 -4.507807 16.623270 8.661836 4.290700 -7.125000 0.000000 0.000000 -8.222400 43.587400 0.288700 -10.677539 -4.796532 0.182546 102.156157 -3.611068 30.228662 -14.117379 22.708749 -4.680219 0.994878 2.625414 -18.745666 -16.693128 3.315008 -0.350600 7.125000 0.000000 0.000000 6.275800 -28.851500 2.482000 
-30.015428 17.487410 -3.071576 0.549752 -0.876554 -4.583966 4.804506 -0.019027 -0.416038 -25.698974 -20.817518 0.929940 -0.551897 10.322305 27.688375 -4.913456 17.929549 -11.061017 0.336200 -3.726000 -10.307000 -6.058748 0.699332 -2.086416 31.170530 13.342939 3.888537 -0.602154 -10.567911 28.551239 2.550168 -18.131059 -29.276370 -0.159000 2.568900 -7.080600 1.071473 1.618429 4.468263 1.344272 2.685786 2.469901 -7.961753 1.275129 7.337350 3.428467 0.769116 -3.187943 9.594075 -0.266867 36.083423 1.044400 2.906900 15.928800 8.082746 6.909533 -1.840039 -93.525025 5.498291 30.341607 15.591735 -22.081132 -5.598060 -1.277673 -4.450063 -4.609813 16.593835 8.575449 4.251000 -7.125000 0.000000 0.000000 -8.225000 43.478200 0.311100 -10.680854 -4.804277 0.186363 102.139657 -3.656427 30.285673 -14.110546 22.719824 -4.694258 0.973642 2.616165 -18.783256 -16.489108 3.307146 -0.345400 7.125000 0.000000 0.000000 6.451600 -28.853600 2.552000 
-30.022300 17.489274 -3.072042 0.573034 -0.868134 -4.576737 4.802466 -0.019669 -0.419869 -25.668285 -20.736663 0.890404 -0.555580 10.312514 27.656694 -4.926143 17.952038 -10.970757 0.352100 -3.812200 -10.548800 -6.062889 0.705895 -2.080095 31.225196 13.511847 3.939029 -0.602230 -10.576424 28.572226 2.552204 -18.186082 -29.366123 -0.153500 2.524600 -6.957800 1.010293 1.604637 4.460714 1.344735 2.666169 2.469599 -7.926396 1.259053 7.329108 3.423520 0.768655 -3.130755 9.586628 -0.262904 36.071135 1.034100 2.907600 15.893700 8.085227 6.902461 -1.835933 -93.499943 5.486565 30.290508 15.587668 -22.073030 -5.587429 -1.290137 -4.450729 -4.619141 16.656725 8.574061 4.269400 -7.125000 0.000000 0.000000 -8.155900 43.484700 0.307200 -10.680589 -4.801702 0.188905 102.128819 -3.658710 30.303743 -14.116720 22.730309 -4.699535 0.976671 2.609453 -18.762909 -16.476596 3.361254 -0.365200 7.125000 0.000000 0.000000 6.457800 -28.790100 2.564300 
-30.025213 17.490788 -3.072508 0.626069 -0.858032 -4.587869 4.803338 -0.017723 -0.422319 -25.699463 -20.634518 0.876133 -0.557174 10.306512 27.638441 -4.925461 17.941629 -10.888124 0.364800 -3.879900 -10.739000 -6.062668 0.705484 -2.079884 31.194437 13.553369 3.971062 -0.607241 -10.580109 28.590542 2.572661 -18.234889 -29.332933 -0.152500 2.516600 -6.935700 0.963172 1.594247 4.458034 1.340573 2.652287 2.477367 -7.903976 1.250753 7.357346 3.382022 0.778599 -3.120538 9.629333 -0.259095 36.056870 1.065300 2.902700 15.866300 8.078520 6.883149 -1.830075 -93.453211 5.429566 30.357345 15.591157 -22.075354 -5.589386 -1.284452 -4.454050 -4.675231 16.645689 8.594442 4.273600 -7.125000 0.000000 0.000000 -8.171600 43.506400 0.303400 -10.680631 -4.790163 0.191128 102.117169 -3.618313 30.314952 -14.115400 22.706442 -4.675885 1.013833 2.608792 -18.719104 -16.742927 3.480188 -0.413900 7.125000 0.000000 0.000000 6.217700 -28.657700 2.487500 
